<?xml version="1.0" encoding="utf-8"?>
<!-- Generator: Adobe Illustrator 24.2.3, SVG Export Plug-In . SVG Version: 6.00 Build 0)  -->
<svg version="1.1" id="Layer_1" xmlns="http://www.w3.org/2000/svg" xmlns:xlink="http://www.w3.org/1999/xlink" x="0px" y="0px"
	 viewBox="0 0 867 550" style="enable-background:new 0 0 867 550;" xml:space="preserve">
<style type="text/css">
	.st0{fill:url(#SVGID_1_);}
	.st1{fill:url(#SVGID_2_);}
	.st2{fill:#0B0E17;}
	.st3{fill:url(#SVGID_3_);}
</style>
<g>
	
		<linearGradient id="SVGID_1_" gradientUnits="userSpaceOnUse" x1="25.03" y1="-230.185" x2="842.38" y2="-230.185" gradientTransform="matrix(1 0 0 1 0 518)">
		<stop  offset="0" style="stop-color:#4DF8CE"/>
		<stop  offset="0.3522" style="stop-color:#84A1FD"/>
		<stop  offset="0.7046" style="stop-color:#E3A5EE"/>
		<stop  offset="1" style="stop-color:#EDE6BC"/>
	</linearGradient>
	<path class="st0" d="M836.38,58.82v457.99H31.03V58.82H836.38 M842.38,52.82H25.03v469.99h817.34L842.38,52.82L842.38,52.82z"/>
</g>
<linearGradient id="SVGID_2_" gradientUnits="userSpaceOnUse" x1="25.03" y1="-477.18" x2="842.3701" y2="-477.18" gradientTransform="matrix(1 0 0 1 0 518)">
	<stop  offset="0" style="stop-color:#4DF8CE"/>
	<stop  offset="0.3522" style="stop-color:#84A1FD"/>
	<stop  offset="0.7046" style="stop-color:#E3A5EE"/>
	<stop  offset="1" style="stop-color:#EDE6BC"/>
</linearGradient>
<rect x="25.03" y="24.82" class="st1" width="817.34" height="32"/>
<g>
	<path class="st2" d="M96.03,35.82v10h-10v-10H96.03 M100.03,31.82h-18v18h18V31.82L100.03,31.82z"/>
</g>
<g>
	<path class="st2" d="M72.03,35.82v10h-10v-10H72.03 M76.03,31.82h-18v18h18V31.82L76.03,31.82z"/>
</g>
<g>
	<path class="st2" d="M48.03,35.82v10h-10v-10H48.03 M52.03,31.82h-18v18h18V31.82L52.03,31.82z"/>
</g>
<g>
	
		<linearGradient id="SVGID_3_" gradientUnits="userSpaceOnUse" x1="25.03" y1="-230.185" x2="842.38" y2="-230.185" gradientTransform="matrix(1 0 0 1 0 518)">
		<stop  offset="0" style="stop-color:#4DF8CE"/>
		<stop  offset="0.3522" style="stop-color:#84A1FD"/>
		<stop  offset="0.7046" style="stop-color:#E3A5EE"/>
		<stop  offset="1" style="stop-color:#EDE6BC"/>
	</linearGradient>
	<path class="st3" d="M836.38,58.82v457.99H31.03V58.82H836.38 M842.38,52.82H25.03v469.99h817.34L842.38,52.82L842.38,52.82z"/>
</g>
</svg>
