<?xml version="1.0" encoding="utf-8"?>
<!-- Generator: Adobe Illustrator 24.2.3, SVG Export Plug-In . SVG Version: 6.00 Build 0)  -->
<svg version="1.1" id="Layer_1" xmlns="http://www.w3.org/2000/svg" xmlns:xlink="http://www.w3.org/1999/xlink" x="0px" y="0px"
	 viewBox="0 0 90 160" style="enable-background:new 0 0 90 160;" xml:space="preserve">
<style type="text/css">
	.st0{display:none;fill:#0B0E17;}
	.st1{display:none;fill:none;stroke:url(#SVGID_1_);stroke-linecap:round;stroke-linejoin:round;stroke-miterlimit:10;}
	.st2{fill:none;stroke:url(#SVGID_2_);stroke-width:2;stroke-linecap:round;stroke-linejoin:round;stroke-miterlimit:10;}
</style>
<rect class="st0" width="90" height="160"/>
<g>
	<linearGradient id="SVGID_1_" gradientUnits="userSpaceOnUse" x1="27.8821" y1="130.6155" x2="58.2725" y2="161.0059">
		<stop  offset="0" style="stop-color:#4DF8CE"/>
		<stop  offset="0.5297" style="stop-color:#84A1FD"/>
		<stop  offset="1" style="stop-color:#E3A5EE"/>
	</linearGradient>
	<path class="st1" d="M50.9,142.56c3.61-0.04,12.43-0.47,11.42,3.29c-1.31,4.88-17.2,4.72-22.07,4.59
		c-4.19-0.11-11.39-0.92-14.99-2.57c-3.27-1.5-1.29-3.31,1.39-4.24c2.36-0.82,7.41-1.11,9.96-1.11 M28.37,138.39
		c-4.26,0.29-8.44,1.66-11.25,3.69 M17.44,148.05c1.79,8.91,26.92,7.66,30.97,7.56 M59.34,153.45c6.63-0.55,11.25-3.66,11.1-7.68
		c-0.15-4.05-6.38-6.8-11.1-6.68"/>
	<linearGradient id="SVGID_2_" gradientUnits="userSpaceOnUse" x1="13.1186" y1="134.404" x2="57.2274" y2="13.216">
		<stop  offset="0" style="stop-color:#EDE6BC"/>
		<stop  offset="0.2954" style="stop-color:#E3A5EE"/>
		<stop  offset="0.6478" style="stop-color:#84A1FD"/>
		<stop  offset="1" style="stop-color:#4DF8CE"/>
	</linearGradient>
	<path class="st2" d="M43.18,144.28c-0.76-10.92-0.05-21.74-0.27-32.65c-0.23-11.47-0.5-22.92-0.56-34.41
		c-0.01-1.52-0.07-3.18-1.08-4.32c-1.2-1.34-3.24-1.42-5.03-1.36c-3.68,0.12-7.43,0.37-10.97-0.63
		c-8.38-2.37-13.54-11.66-13.06-20.35s5.55-16.59,11.94-22.52c1.72-1.6,3.59-3.15,4.57-5.28c0.98-2.13,0.75-5.05-1.22-6.33
		c-2.23,1.61-5.28,1.99-7.83,0.99c-2.4,2.8-4.63,5.75-6.67,8.83c-2.24-1.31-3.06-4.3-2.45-6.82s2.36-4.61,4.3-6.33
		c0.84-0.75,1.73-1.45,2.48-2.29c0.8-0.89,1.42-1.91,2.2-2.81c2.88-3.33,7.9-4.61,12.02-3.06s7.06,5.82,7.03,10.22
		c-0.03,4.09-2.35,7.82-5.07,10.87s-5.9,5.7-8.28,9.03c-3.66,5.12-5.16,11.74-4.06,17.94c0.42,2.35,1.62,5.03,3.98,5.39
		c2.52,0.39,4.45-2.06,6.04-4.06c5.46-6.89,13.74-11.47,22.47-12.44c4.54-0.51,9.3-0.03,13.34,2.11c4.72,2.51,8.08,7.11,9.98,12.1
		c1.91,4.99,2.77,12.41,2.67,17.75c-2.33-1.74-4.78-3.31-7.32-4.71c0.44,1.67,0.49,3.44,0.16,5.13c-7.23-1.14-14.47-2.55-21.79-2.71
		c-0.53-0.01-1.1-0.01-1.53,0.29c-1.05,0.74-0.45,2.38,0.24,3.46c4.32,6.75,8.64,13.51,12.96,20.26c0.58,0.91,1.19,1.92,1.07,3
		c-0.23,2.02-4.13,2.95-6.16,3.59c-2.75,0.87-6.1,2.05-8.88,2.82 M36.63,108.15c-3.75,1.21-6.54,2.21-10.23,3.61
		c-0.74,0.28-1.53,0.61-1.94,1.29c-0.49,0.82-0.26,1.87,0.06,2.78c0.32,0.9,0.9,2.62,1.14,3.63"/>
</g>
</svg>
